<svg width="83" height="83" viewBox="0 0 83 83" fill="none" xmlns="http://www.w3.org/2000/svg">
<path d="M7 41C7 31.43 30.43 8 40 8C49.57 8 73 31.43 73 41C73 50.57 49.57 74 40 74C30.43 74 7 50.57 7 41Z" fill="url(#paint0_linear)"/>
<g style="mix-blend-mode:overlay" filter="url(#filter0_f)">
<circle cx="41.5" cy="41.5" r="11.5" fill="white"/>
</g>
<mask id="mask0" mask-type="alpha" maskUnits="userSpaceOnUse" x="25" y="26" width="30" height="30">
<path d="M27.8901 49.1774C28.4055 48.7006 29.0827 48.4374 29.7847 48.4409C29.9117 48.445 30.0382 48.4577 30.1635 48.4788L32.4696 44.6354C30.4769 43.0775 30.1245 40.1993 31.6823 38.2067C32.0753 37.704 32.569 37.289 33.1317 36.9883L31.0896 33.5847C30.9643 33.6058 30.8377 33.6185 30.7108 33.6227C29.1651 33.6341 27.9029 32.3902 27.8916 30.8445C27.8802 29.2988 29.1241 28.0366 30.6698 28.0252C32.2155 28.0139 33.4777 29.2577 33.489 30.8034C33.4943 31.5185 33.2256 32.2085 32.7382 32.7317L34.9609 36.4363C35.0896 36.4288 35.2119 36.4011 35.3415 36.4011C36.2854 36.4017 37.2063 36.6927 37.9792 37.2346L45.5735 32.1733C45.5511 32.0399 45.5363 31.9054 45.5291 31.7704C45.5116 29.7071 47.1701 28.0204 49.2334 28.0029C51.2966 27.9855 52.9834 29.644 53.0008 31.7073C53.0182 33.7706 51.3598 35.4573 49.2965 35.4747C48.0943 35.4849 46.9606 34.9159 46.2505 33.9459L39.2655 38.6025C39.5581 39.063 39.766 39.572 39.8796 40.1056H45.6995C46.211 38.6589 47.7984 37.9008 49.2451 38.4123C50.6918 38.9238 51.4499 40.5112 50.9384 41.9579C50.4269 43.4046 48.8395 44.1628 47.3928 43.6512C46.6015 43.3715 45.9791 42.7491 45.6994 41.9579H39.8796C39.7663 42.4914 39.5587 43.0004 39.2665 43.461L46.2505 48.1176C47.4608 46.4788 49.7704 46.1314 51.4092 47.3417C53.048 48.552 53.3954 50.8617 52.1851 52.5004C50.9748 54.1392 48.6651 54.4866 47.0264 53.2763C46.0801 52.5775 45.524 51.4694 45.529 50.2931C45.535 50.1581 45.5486 50.0236 45.5698 49.8902L37.9754 44.8289C36.8593 45.6289 35.4362 45.8681 34.1199 45.4772L31.8045 49.3299C32.8433 50.453 32.775 52.2056 31.6519 53.2444C30.5288 54.2832 28.7762 54.2149 27.7374 53.0918C26.6987 51.9687 26.767 50.2162 27.8901 49.1774Z" fill="black"/>
</mask>
<g mask="url(#mask0)">
<rect x="25" y="26" width="30" height="30" fill="#FAFCFD"/>
</g>
<defs>
<filter id="filter0_f" x="0" y="0" width="83" height="83" filterUnits="userSpaceOnUse" color-interpolation-filters="sRGB">
<feFlood flood-opacity="0" result="BackgroundImageFix"/>
<feBlend mode="normal" in="SourceGraphic" in2="BackgroundImageFix" result="shape"/>
<feGaussianBlur stdDeviation="15" result="effect1_foregroundBlur"/>
</filter>
<linearGradient id="paint0_linear" x1="25" y1="10" x2="51" y2="71.5" gradientUnits="userSpaceOnUse">
<stop stop-color="#DC07FF"/>
<stop offset="1" stop-color="#2B62FF"/>
</linearGradient>
</defs>
</svg>
