<svg width="84" height="83" viewBox="0 0 84 83" fill="none" xmlns="http://www.w3.org/2000/svg">
<path d="M7.66675 41C7.66675 31.43 31.0967 8 40.6667 8C50.2367 8 73.6667 31.43 73.6667 41C73.6667 50.57 50.2367 74 40.6667 74C31.0967 74 7.66675 50.57 7.66675 41Z" fill="url(#paint0_linear)"/>
<g style="mix-blend-mode:overlay" filter="url(#filter0_f)">
<circle cx="42.1667" cy="41.5" r="11.5" fill="white"/>
</g>
<mask id="mask0" mask-type="alpha" maskUnits="userSpaceOnUse" x="25" y="26" width="31" height="30">
<path fill-rule="evenodd" clip-rule="evenodd" d="M38.7645 35.1671C42.1465 31.3681 47.4895 28.9191 52.1745 29.0031C52.4415 29.0101 52.6565 29.2251 52.6635 29.4911C52.7725 34.1701 50.3035 39.5111 46.5005 42.9001C46.4395 46.1321 45.1145 49.2791 42.8295 51.5641C42.7295 51.6631 42.5845 51.7251 42.4425 51.7251C42.3935 51.7251 42.3455 51.7181 42.2995 51.7031C42.1205 51.6431 41.9725 51.5051 41.9455 51.3171L41.3935 47.4631L40.8605 47.9391C40.7655 48.0241 40.6465 48.0661 40.5275 48.0661C40.3985 48.0661 40.2705 48.0171 40.1735 47.9201L33.7465 41.4931C33.5585 41.3051 33.5495 41.0041 33.7265 40.8061L34.2025 40.2731L30.3485 39.7211C30.1605 39.6941 30.0045 39.5631 29.9445 39.3821C29.8855 39.2021 29.9335 39.0031 30.0685 38.8701C32.3855 36.5531 35.5325 35.2281 38.7645 35.1671ZM45.7985 38.3661C46.4395 38.3661 47.0795 38.1221 47.5665 37.6351C48.5415 36.6611 48.5415 35.0741 47.5665 34.0991C46.5915 33.1241 45.0055 33.1241 44.0305 34.0991C43.0565 35.0741 43.0565 36.6601 44.0305 37.6351C44.5175 38.1221 45.1575 38.3661 45.7985 38.3661ZM28.6878 52.356C28.8518 51.809 30.3208 46.975 31.3908 45.905C32.5958 44.701 34.5558 44.7 35.7618 45.905C36.9668 47.11 36.9668 49.071 35.7618 50.276C34.6918 51.346 29.8578 52.815 29.3108 52.979C29.2628 52.993 29.2148 53 29.1668 53C29.0358 53 28.9088 52.949 28.8128 52.853C28.6838 52.723 28.6348 52.532 28.6878 52.356Z" fill="black"/>
</mask>
<g mask="url(#mask0)">
<rect x="25.6667" y="26" width="30" height="30" fill="#FAFCFD"/>
</g>
<defs>
<filter id="filter0_f" x="0.666748" y="0" width="83" height="83" filterUnits="userSpaceOnUse" color-interpolation-filters="sRGB">
<feFlood flood-opacity="0" result="BackgroundImageFix"/>
<feBlend mode="normal" in="SourceGraphic" in2="BackgroundImageFix" result="shape"/>
<feGaussianBlur stdDeviation="15" result="effect1_foregroundBlur"/>
</filter>
<linearGradient id="paint0_linear" x1="25.6667" y1="10" x2="51.6667" y2="71.5" gradientUnits="userSpaceOnUse">
<stop stop-color="#FF0707"/>
<stop offset="1" stop-color="#FF2BF7"/>
</linearGradient>
</defs>
</svg>
