<svg width="797" height="796" viewBox="0 0 797 796" fill="none" xmlns="http://www.w3.org/2000/svg">
<path d="M294.54 332.376V468.784C294.54 468.861 294.623 468.91 294.691 468.873L405.568 408.609C405.601 408.591 405.622 408.557 405.622 408.519V272.112C405.622 272.034 405.539 271.985 405.471 272.022L294.593 332.287C294.56 332.304 294.54 332.339 294.54 332.376Z" stroke="url(#paint0_linear)" stroke-width="1.5" stroke-linejoin="round"/>
<path d="M288.724 465.89L399.602 405.628C399.634 405.61 399.655 405.576 399.655 405.538V269.129C399.655 269.052 399.572 269.003 399.504 269.04L288.626 329.304C288.594 329.322 288.573 329.356 288.573 329.393V465.801C288.573 465.878 288.656 465.927 288.724 465.89Z" stroke="url(#paint1_linear)" stroke-width="1.5" stroke-linejoin="round"/>
<path d="M300.657 471.855L411.535 411.592C411.568 411.574 411.588 411.54 411.588 411.503V275.093C411.588 275.016 411.505 274.967 411.438 275.004L300.56 335.268C300.527 335.286 300.506 335.32 300.506 335.358V471.765C300.506 471.842 300.589 471.892 300.657 471.855Z" stroke="url(#paint2_linear)" stroke-width="1.5" stroke-linejoin="round"/>
<path d="M306.622 474.837L417.502 414.573C417.535 414.555 417.555 414.521 417.555 414.483V278.076C417.555 277.999 417.473 277.95 417.405 277.986L306.525 338.251C306.492 338.269 306.472 338.303 306.472 338.34V474.748C306.472 474.825 306.554 474.874 306.622 474.837Z" stroke="url(#paint3_linear)" stroke-width="1.5" stroke-linejoin="round"/>
<path d="M312.439 341.322V477.731C312.439 477.808 312.522 477.857 312.589 477.821L423.469 417.556C423.502 417.538 423.522 417.504 423.522 417.467V281.058C423.522 280.98 423.44 280.931 423.372 280.968L312.492 341.232C312.459 341.25 312.439 341.285 312.439 341.322Z" stroke="url(#paint4_linear)" stroke-width="1.5" stroke-linejoin="round"/>
<path d="M318.405 344.305V480.712C318.405 480.789 318.488 480.839 318.556 480.802L429.434 420.537C429.466 420.519 429.487 420.485 429.487 420.448V284.04C429.487 283.963 429.404 283.914 429.336 283.951L318.458 344.215C318.426 344.233 318.405 344.267 318.405 344.305Z" stroke="url(#paint5_linear)" stroke-width="1.5" stroke-linejoin="round"/>
<path d="M324.372 347.286V483.695C324.372 483.772 324.455 483.822 324.523 483.785L435.401 423.52C435.433 423.502 435.454 423.468 435.454 423.431V287.022C435.454 286.944 435.371 286.895 435.303 286.932L324.425 347.197C324.392 347.214 324.372 347.249 324.372 347.286Z" stroke="url(#paint6_linear)" stroke-width="1.5" stroke-linejoin="round"/>
<path d="M330.49 486.766L441.368 426.501C441.401 426.484 441.421 426.449 441.421 426.412V290.004C441.421 289.927 441.338 289.878 441.27 289.915L330.393 350.179C330.36 350.197 330.339 350.231 330.339 350.269V486.676C330.339 486.754 330.422 486.803 330.49 486.766Z" stroke="url(#paint7_linear)" stroke-width="1.5" stroke-linejoin="round"/>
<path d="M336.454 489.749L447.334 429.484C447.367 429.467 447.387 429.432 447.387 429.395V292.986C447.387 292.909 447.304 292.86 447.237 292.896L336.357 353.161C336.324 353.179 336.304 353.213 336.304 353.25V489.659C336.304 489.737 336.386 489.786 336.454 489.749Z" stroke="url(#paint8_linear)" stroke-width="1.5" stroke-linejoin="round"/>
<path d="M342.271 356.234V492.641C342.271 492.718 342.354 492.768 342.421 492.731L453.301 432.466C453.334 432.448 453.354 432.414 453.354 432.377V295.969C453.354 295.892 453.272 295.843 453.204 295.88L342.324 356.144C342.291 356.162 342.271 356.196 342.271 356.234Z" stroke="url(#paint9_linear)" stroke-width="1.5" stroke-linejoin="round"/>
<path d="M348.388 495.714L459.268 435.449C459.301 435.431 459.321 435.397 459.321 435.36V298.952C459.321 298.875 459.239 298.826 459.171 298.863L348.291 359.125C348.258 359.143 348.238 359.178 348.238 359.215V495.624C348.238 495.701 348.32 495.75 348.388 495.714Z" stroke="url(#paint10_linear)" stroke-width="1.5" stroke-linejoin="round"/>
<path d="M354.205 362.198V498.606C354.205 498.683 354.288 498.732 354.356 498.695L465.233 438.431C465.266 438.413 465.287 438.379 465.287 438.341V301.934C465.287 301.856 465.204 301.807 465.136 301.844L354.258 362.109C354.225 362.126 354.205 362.161 354.205 362.198Z" stroke="url(#paint11_linear)" stroke-width="1.5" stroke-linejoin="round"/>
<path d="M360.322 501.678L471.2 441.413C471.233 441.395 471.253 441.361 471.253 441.324V304.916C471.253 304.839 471.17 304.79 471.103 304.827L360.225 365.089C360.192 365.107 360.171 365.142 360.171 365.179V501.588C360.171 501.665 360.254 501.715 360.322 501.678Z" stroke="url(#paint12_linear)" stroke-width="1.5" stroke-linejoin="round"/>
<path d="M366.137 368.162V504.572C366.137 504.649 366.219 504.698 366.287 504.661L477.167 444.397C477.2 444.379 477.22 444.345 477.22 444.307V307.898C477.22 307.821 477.137 307.772 477.07 307.808L366.19 368.073C366.157 368.091 366.137 368.125 366.137 368.162Z" stroke="url(#paint13_linear)" stroke-width="1.5" stroke-linejoin="round"/>
<path d="M372.104 371.145V507.552C372.104 507.63 372.186 507.679 372.254 507.642L483.134 447.377C483.167 447.36 483.187 447.325 483.187 447.288V310.88C483.187 310.803 483.104 310.754 483.037 310.791L372.157 371.055C372.124 371.073 372.104 371.108 372.104 371.145Z" stroke="url(#paint14_linear)" stroke-width="1.5" stroke-linejoin="round"/>
<path d="M378.22 510.625L489.098 450.361C489.131 450.343 489.151 450.309 489.151 450.271V313.862C489.151 313.785 489.069 313.736 489.001 313.772L378.123 374.037C378.09 374.055 378.07 374.089 378.07 374.126V510.536C378.07 510.613 378.152 510.662 378.22 510.625Z" stroke="url(#paint15_linear)" stroke-width="1.5" stroke-linejoin="round"/>
<path d="M384.037 377.11V513.517C384.037 513.594 384.12 513.644 384.188 513.607L495.066 453.342C495.098 453.324 495.119 453.29 495.119 453.253V316.845C495.119 316.768 495.036 316.719 494.968 316.756L384.09 377.02C384.058 377.038 384.037 377.072 384.037 377.11Z" stroke="url(#paint16_linear)" stroke-width="1.5" stroke-linejoin="round"/>
<path d="M390.004 380.091V516.5C390.004 516.578 390.087 516.627 390.154 516.59L501.032 456.325C501.065 456.308 501.086 456.273 501.086 456.236V319.826C501.086 319.749 501.003 319.7 500.935 319.737L390.057 380.001C390.024 380.019 390.004 380.054 390.004 380.091Z" stroke="url(#paint17_linear)" stroke-width="1.5" stroke-linejoin="round"/>
<path d="M395.971 383.073V519.481C395.971 519.558 396.053 519.607 396.121 519.57L506.999 459.306C507.032 459.288 507.052 459.254 507.052 459.216V322.809C507.052 322.732 506.97 322.683 506.902 322.719L396.024 382.984C395.991 383.002 395.971 383.036 395.971 383.073Z" stroke="url(#paint18_linear)" stroke-width="1.5" stroke-linejoin="round"/>
<path d="M401.847 386.724V523.132C401.847 523.209 401.93 523.258 401.998 523.221L512.876 462.957C512.908 462.939 512.929 462.905 512.929 462.868V326.46C512.929 326.383 512.846 326.334 512.778 326.37L401.9 386.635C401.868 386.653 401.847 386.687 401.847 386.724Z" stroke="url(#paint19_linear)" stroke-width="1.5" stroke-linejoin="round"/>
<g opacity="0.5" filter="url(#filter0_d)">
<rect x="374" y="375" width="48" height="48" rx="24" fill="black" fill-opacity="0.01"/>
</g>
<path d="M358.256 404.175C359.109 404.262 359.854 404.427 360.489 404.671C361.134 404.906 361.634 405.258 361.991 405.729C362.348 406.19 362.527 406.808 362.527 407.583C362.527 408.48 362.231 409.242 361.639 409.869C361.055 410.504 360.198 410.987 359.066 411.318C357.934 411.649 356.563 411.815 354.952 411.815C352.575 411.815 350.733 411.471 349.427 410.783C348.13 410.104 347.481 409.194 347.481 408.053C347.481 407.731 347.516 407.44 347.586 407.178C347.664 406.926 347.76 406.708 347.873 406.525L351.556 407.061C351.513 407.122 351.465 407.213 351.413 407.335C351.369 407.466 351.347 407.627 351.347 407.818C351.347 408.28 351.691 408.624 352.379 408.85C353.075 409.076 353.972 409.19 355.069 409.19C355.844 409.19 356.506 409.133 357.054 409.02C357.612 408.915 358.034 408.759 358.321 408.55C358.617 408.341 358.765 408.101 358.765 407.831C358.765 407.44 358.574 407.183 358.191 407.061C357.816 406.939 357.381 406.852 356.885 406.8L351.635 406.264C350.668 406.168 349.867 405.89 349.231 405.428C348.596 404.967 348.278 404.344 348.278 403.561C348.278 403.073 348.413 402.629 348.683 402.229C348.953 401.819 349.262 401.484 349.61 401.223C349.958 400.953 350.25 400.783 350.485 400.714L352.549 401.758C352.383 401.785 352.187 401.889 351.961 402.072C351.743 402.255 351.635 402.468 351.635 402.712C351.635 402.956 351.756 403.165 352 403.339C352.253 403.513 352.71 403.63 353.372 403.691L358.256 404.175ZM359.627 391.95H363.193L361.743 397.279C361.473 398.289 361.073 399.19 360.541 399.982C360.01 400.766 359.301 401.384 358.413 401.837C357.533 402.29 356.423 402.516 355.082 402.516C353.672 402.516 352.449 402.298 351.413 401.863C350.385 401.428 349.593 400.814 349.036 400.021C348.478 399.22 348.2 398.276 348.2 397.187C348.2 396.099 348.483 395.141 349.049 394.314C349.623 393.487 350.403 392.843 351.386 392.381C352.379 391.92 353.502 391.689 354.756 391.689C355.705 391.689 356.571 391.846 357.355 392.159C358.147 392.464 358.783 392.869 359.262 393.374C359.749 393.879 360.002 394.436 360.019 395.046L359.275 395.241L359.627 391.95ZM355.056 399.551C355.631 399.551 356.136 399.46 356.571 399.277C357.007 399.085 357.346 398.811 357.59 398.454C357.834 398.089 357.956 397.649 357.956 397.135C357.956 396.63 357.834 396.199 357.59 395.842C357.346 395.485 357.007 395.211 356.571 395.019C356.136 394.828 355.631 394.732 355.056 394.732C354.508 394.732 354.011 394.832 353.567 395.032C353.132 395.224 352.788 395.503 352.536 395.868C352.283 396.225 352.157 396.661 352.157 397.174C352.157 397.679 352.279 398.11 352.523 398.467C352.766 398.816 353.106 399.085 353.541 399.277C353.977 399.46 354.482 399.551 355.056 399.551Z" fill="#ECF2F5"/>
<path d="M365.161 405.82V391.95H369.223V396.73L368.387 396.208C368.483 395.555 368.657 394.954 368.909 394.406C369.162 393.857 369.488 393.383 369.889 392.982C370.289 392.573 370.764 392.255 371.312 392.029C371.87 391.802 372.505 391.689 373.219 391.689C373.776 391.689 374.212 391.733 374.525 391.82C374.847 391.898 375.048 391.959 375.126 392.003L374.46 395.633C374.381 395.59 374.207 395.52 373.937 395.424C373.668 395.329 373.319 395.281 372.893 395.281C372.196 395.281 371.613 395.398 371.143 395.633C370.672 395.868 370.294 396.182 370.006 396.574C369.728 396.957 369.527 397.383 369.406 397.853C369.284 398.324 369.223 398.798 369.223 399.277V405.82H365.161Z" fill="#ECF2F5"/>
<path d="M381.622 406.107C380.612 406.107 379.711 405.946 378.918 405.624C378.135 405.302 377.521 404.836 377.077 404.227C376.633 403.617 376.411 402.877 376.411 402.007C376.411 401.023 376.681 400.222 377.221 399.603C377.76 398.985 378.474 398.515 379.362 398.193C380.259 397.862 381.23 397.644 382.275 397.54C383.798 397.392 384.848 397.257 385.422 397.135C386.006 397.013 386.297 396.8 386.297 396.495C386.297 396.486 386.297 396.478 386.297 396.469C386.297 395.955 386.049 395.551 385.553 395.254C385.065 394.958 384.382 394.81 383.502 394.81C382.571 394.81 381.857 394.98 381.361 395.32C380.873 395.651 380.629 396.16 380.629 396.848H376.646C376.646 395.733 376.946 394.793 377.547 394.027C378.157 393.261 378.979 392.682 380.015 392.29C381.052 391.889 382.223 391.689 383.529 391.689C384.748 391.689 385.875 391.876 386.911 392.251C387.947 392.616 388.779 393.169 389.406 393.909C390.041 394.649 390.359 395.59 390.359 396.73C390.359 396.913 390.359 397.096 390.359 397.279C390.359 397.453 390.359 397.631 390.359 397.814V402.725C390.359 403.082 390.368 403.426 390.385 403.757C390.411 404.079 390.463 404.375 390.542 404.645C390.629 404.949 390.738 405.202 390.868 405.402C390.999 405.602 391.108 405.742 391.195 405.82H387.212C387.151 405.759 387.055 405.633 386.924 405.441C386.802 405.25 386.698 405.028 386.611 404.775C386.506 404.471 386.428 404.166 386.376 403.861C386.332 403.548 386.31 403.182 386.31 402.764L387.146 403.339C386.902 403.913 386.506 404.41 385.958 404.828C385.418 405.237 384.774 405.555 384.025 405.781C383.285 405.999 382.484 406.107 381.622 406.107ZM382.706 403.077C383.341 403.077 383.933 402.964 384.482 402.738C385.039 402.503 385.492 402.137 385.84 401.641C386.188 401.145 386.363 400.496 386.363 399.695V398.297L387.368 399.277C386.794 399.486 386.128 399.66 385.37 399.799C384.621 399.93 383.873 400.034 383.124 400.113C382.236 400.2 381.57 400.352 381.126 400.57C380.69 400.779 380.473 401.136 380.473 401.641C380.473 402.12 380.66 402.481 381.034 402.725C381.409 402.96 381.966 403.077 382.706 403.077Z" fill="#ECF2F5"/>
<path d="M393.322 411.527V391.95H397.383V411.527H393.322ZM401.667 406.134C400.57 406.134 399.564 405.842 398.65 405.258C397.736 404.666 397.005 403.874 396.456 402.882C395.908 401.88 395.633 400.757 395.633 399.512C395.633 399.477 395.633 399.447 395.633 399.421C395.633 399.386 395.633 399.347 395.633 399.303L397.383 399.264C397.383 399.29 397.383 399.316 397.383 399.342C397.383 399.368 397.383 399.395 397.383 399.421C397.383 400.065 397.54 400.631 397.854 401.118C398.167 401.597 398.572 401.967 399.068 402.229C399.564 402.49 400.083 402.62 400.622 402.62C401.51 402.62 402.281 402.316 402.934 401.706C403.596 401.088 403.927 400.126 403.927 398.82C403.927 397.514 403.6 396.565 402.947 395.973C402.294 395.372 401.519 395.072 400.622 395.072C400.083 395.072 399.564 395.202 399.068 395.463C398.572 395.716 398.167 396.077 397.854 396.547C397.54 397.018 397.383 397.579 397.383 398.232L395.633 398.128C395.633 396.874 395.908 395.768 396.456 394.81C397.005 393.844 397.736 393.082 398.65 392.525C399.564 391.968 400.57 391.689 401.667 391.689C402.79 391.689 403.839 391.968 404.815 392.525C405.79 393.073 406.578 393.879 407.178 394.941C407.788 396.003 408.093 397.296 408.093 398.82C408.093 400.413 407.797 401.754 407.205 402.842C406.613 403.931 405.829 404.754 404.854 405.311C403.879 405.859 402.816 406.134 401.667 406.134Z" fill="#ECF2F5"/>
<path d="M420.385 405.82V400.883C420.385 400.709 420.385 400.47 420.385 400.165C420.385 399.86 420.385 399.551 420.385 399.238C420.385 398.924 420.385 398.672 420.385 398.48C420.385 397.418 420.193 396.6 419.81 396.025C419.427 395.442 418.726 395.15 417.708 395.15C417.046 395.15 416.489 395.285 416.036 395.555C415.583 395.816 415.239 396.186 415.004 396.665C414.778 397.144 414.665 397.705 414.665 398.35L413.489 397.54C413.489 396.382 413.737 395.368 414.234 394.497C414.73 393.618 415.414 392.93 416.284 392.434C417.164 391.937 418.178 391.689 419.327 391.689C421.025 391.689 422.301 392.19 423.154 393.191C424.007 394.184 424.434 395.568 424.434 397.344C424.434 397.797 424.434 398.341 424.434 398.977C424.434 399.612 424.434 400.348 424.434 401.184V405.82H420.385ZM410.616 405.82V385.407H414.665V405.82H410.616Z" fill="#ECF2F5"/>
<path d="M427.295 405.82V391.95H431.304V405.82H427.295ZM429.293 389.691C428.666 389.691 428.117 389.525 427.647 389.195C427.186 388.864 426.955 388.398 426.955 387.797C426.955 387.188 427.186 386.718 427.647 386.387C428.117 386.056 428.666 385.89 429.293 385.89C429.928 385.89 430.477 386.056 430.938 386.387C431.409 386.718 431.644 387.188 431.644 387.797C431.644 388.407 431.409 388.877 430.938 389.208C430.477 389.53 429.928 389.691 429.293 389.691Z" fill="#ECF2F5"/>
<path d="M441.105 406.107C440.574 406.107 440.025 406.06 439.459 405.964C438.902 405.877 438.38 405.698 437.892 405.428C437.413 405.15 437.026 404.745 436.73 404.214C436.434 403.683 436.286 402.982 436.286 402.111C436.286 401.919 436.286 401.724 436.286 401.523C436.286 401.323 436.286 401.123 436.286 400.923V395.085H433.086V391.95H433.987C434.509 391.95 434.923 391.929 435.228 391.885C435.541 391.841 435.772 391.733 435.92 391.559C436.077 391.376 436.177 391.093 436.22 390.71C436.264 390.327 436.286 389.8 436.286 389.129V387.379H440.347V391.95H444.383V395.085H440.347V400.074C440.347 400.23 440.347 400.383 440.347 400.531C440.347 400.679 440.347 400.822 440.347 400.962C440.347 401.562 440.417 402.05 440.556 402.424C440.704 402.799 441.066 402.986 441.64 402.986C441.928 402.986 442.197 402.96 442.45 402.908C442.711 402.855 442.907 402.803 443.038 402.751V405.794C442.855 405.872 442.598 405.942 442.267 406.003C441.936 406.073 441.549 406.107 441.105 406.107Z" fill="#ECF2F5"/>
<path d="M448.06 400.1V397.422H457.254L456.862 398.102C456.862 398.032 456.862 397.967 456.862 397.906C456.862 397.836 456.862 397.771 456.862 397.71C456.862 397.214 456.745 396.739 456.51 396.286C456.275 395.825 455.909 395.45 455.413 395.163C454.925 394.867 454.298 394.719 453.532 394.719C452.766 394.719 452.104 394.884 451.547 395.215C450.998 395.537 450.576 396.003 450.28 396.613C449.993 397.222 449.849 397.958 449.849 398.82C449.849 399.708 449.988 400.47 450.267 401.105C450.554 401.732 450.977 402.216 451.534 402.555C452.1 402.895 452.801 403.064 453.637 403.064C454.176 403.064 454.642 403.017 455.034 402.921C455.426 402.816 455.744 402.686 455.987 402.529C456.24 402.372 456.431 402.198 456.562 402.007C456.693 401.815 456.771 401.628 456.797 401.445H460.793C460.741 402.028 460.541 402.603 460.193 403.169C459.844 403.726 459.361 404.231 458.743 404.684C458.125 405.128 457.372 405.481 456.484 405.742C455.604 406.003 454.599 406.134 453.467 406.134C451.934 406.134 450.598 405.829 449.457 405.219C448.317 404.601 447.433 403.752 446.806 402.673C446.179 401.584 445.866 400.331 445.866 398.911C445.866 397.475 446.184 396.217 446.819 395.137C447.463 394.049 448.356 393.204 449.496 392.603C450.646 391.994 451.974 391.689 453.48 391.689C455.021 391.689 456.353 391.998 457.476 392.616C458.599 393.226 459.466 394.083 460.075 395.189C460.685 396.286 460.989 397.566 460.989 399.029C460.989 399.247 460.985 399.455 460.976 399.656C460.968 399.856 460.954 400.004 460.937 400.1H448.06Z" fill="#ECF2F5"/>
<defs>
<filter id="filter0_d" x="34" y="35" width="728" height="728" filterUnits="userSpaceOnUse" color-interpolation-filters="sRGB">
<feFlood flood-opacity="0" result="BackgroundImageFix"/>
<feColorMatrix in="SourceAlpha" type="matrix" values="0 0 0 0 0 0 0 0 0 0 0 0 0 0 0 0 0 0 127 0"/>
<feMorphology radius="100" operator="dilate" in="SourceAlpha" result="effect1_dropShadow"/>
<feOffset/>
<feGaussianBlur stdDeviation="120"/>
<feColorMatrix type="matrix" values="0 0 0 0 0 0 0 0 0 0 0 0 0 0 0 0 0 0 1 0"/>
<feBlend mode="normal" in2="BackgroundImageFix" result="effect1_dropShadow"/>
<feBlend mode="normal" in="SourceGraphic" in2="effect1_dropShadow" result="shape"/>
</filter>
<linearGradient id="paint0_linear" x1="435.478" y1="410.937" x2="278.897" y2="362.384" gradientUnits="userSpaceOnUse">
<stop stop-color="#0071BC"/>
<stop offset="0.348958" stop-color="#6F4CBB"/>
<stop offset="0.713542" stop-color="#F3901B"/>
<stop offset="1" stop-color="#EBFF09"/>
</linearGradient>
<linearGradient id="paint1_linear" x1="429.511" y1="407.954" x2="272.93" y2="359.401" gradientUnits="userSpaceOnUse">
<stop stop-color="#0071BC"/>
<stop offset="0.348958" stop-color="#6F4CBB"/>
<stop offset="0.713542" stop-color="#F3901B"/>
<stop offset="1" stop-color="#EBFF09"/>
</linearGradient>
<linearGradient id="paint2_linear" x1="441.444" y1="413.918" x2="284.863" y2="365.366" gradientUnits="userSpaceOnUse">
<stop stop-color="#0071BC"/>
<stop offset="0.348958" stop-color="#6F4CBB"/>
<stop offset="0.713542" stop-color="#F3901B"/>
<stop offset="1" stop-color="#EBFF09"/>
</linearGradient>
<linearGradient id="paint3_linear" x1="447.412" y1="416.901" x2="290.828" y2="368.347" gradientUnits="userSpaceOnUse">
<stop stop-color="#0071BC"/>
<stop offset="0.348958" stop-color="#6F4CBB"/>
<stop offset="0.713542" stop-color="#F3901B"/>
<stop offset="1" stop-color="#EBFF09"/>
</linearGradient>
<linearGradient id="paint4_linear" x1="453.379" y1="419.884" x2="296.795" y2="371.33" gradientUnits="userSpaceOnUse">
<stop stop-color="#0071BC"/>
<stop offset="0.348958" stop-color="#6F4CBB"/>
<stop offset="0.713542" stop-color="#F3901B"/>
<stop offset="1" stop-color="#EBFF09"/>
</linearGradient>
<linearGradient id="paint5_linear" x1="459.343" y1="422.865" x2="302.762" y2="374.313" gradientUnits="userSpaceOnUse">
<stop stop-color="#0071BC"/>
<stop offset="0.348958" stop-color="#6F4CBB"/>
<stop offset="0.713542" stop-color="#F3901B"/>
<stop offset="1" stop-color="#EBFF09"/>
</linearGradient>
<linearGradient id="paint6_linear" x1="465.31" y1="425.848" x2="308.728" y2="377.295" gradientUnits="userSpaceOnUse">
<stop stop-color="#0071BC"/>
<stop offset="0.348958" stop-color="#6F4CBB"/>
<stop offset="0.713542" stop-color="#F3901B"/>
<stop offset="1" stop-color="#EBFF09"/>
</linearGradient>
<linearGradient id="paint7_linear" x1="471.277" y1="428.829" x2="314.696" y2="380.277" gradientUnits="userSpaceOnUse">
<stop stop-color="#0071BC"/>
<stop offset="0.348958" stop-color="#6F4CBB"/>
<stop offset="0.713542" stop-color="#F3901B"/>
<stop offset="1" stop-color="#EBFF09"/>
</linearGradient>
<linearGradient id="paint8_linear" x1="477.244" y1="431.812" x2="320.66" y2="383.258" gradientUnits="userSpaceOnUse">
<stop stop-color="#0071BC"/>
<stop offset="0.348958" stop-color="#6F4CBB"/>
<stop offset="0.713542" stop-color="#F3901B"/>
<stop offset="1" stop-color="#EBFF09"/>
</linearGradient>
<linearGradient id="paint9_linear" x1="483.211" y1="434.794" x2="326.628" y2="386.24" gradientUnits="userSpaceOnUse">
<stop stop-color="#0071BC"/>
<stop offset="0.348958" stop-color="#6F4CBB"/>
<stop offset="0.713542" stop-color="#F3901B"/>
<stop offset="1" stop-color="#EBFF09"/>
</linearGradient>
<linearGradient id="paint10_linear" x1="489.178" y1="437.777" x2="332.595" y2="389.223" gradientUnits="userSpaceOnUse">
<stop stop-color="#0071BC"/>
<stop offset="0.348958" stop-color="#6F4CBB"/>
<stop offset="0.713542" stop-color="#F3901B"/>
<stop offset="1" stop-color="#EBFF09"/>
</linearGradient>
<linearGradient id="paint11_linear" x1="495.143" y1="440.759" x2="338.562" y2="392.206" gradientUnits="userSpaceOnUse">
<stop stop-color="#0071BC"/>
<stop offset="0.348958" stop-color="#6F4CBB"/>
<stop offset="0.713542" stop-color="#F3901B"/>
<stop offset="1" stop-color="#EBFF09"/>
</linearGradient>
<linearGradient id="paint12_linear" x1="501.109" y1="443.741" x2="344.528" y2="395.189" gradientUnits="userSpaceOnUse">
<stop stop-color="#0071BC"/>
<stop offset="0.348958" stop-color="#6F4CBB"/>
<stop offset="0.713542" stop-color="#F3901B"/>
<stop offset="1" stop-color="#EBFF09"/>
</linearGradient>
<linearGradient id="paint13_linear" x1="507.077" y1="446.724" x2="350.493" y2="398.171" gradientUnits="userSpaceOnUse">
<stop stop-color="#0071BC"/>
<stop offset="0.348958" stop-color="#6F4CBB"/>
<stop offset="0.713542" stop-color="#F3901B"/>
<stop offset="1" stop-color="#EBFF09"/>
</linearGradient>
<linearGradient id="paint14_linear" x1="513.044" y1="449.705" x2="356.46" y2="401.151" gradientUnits="userSpaceOnUse">
<stop stop-color="#0071BC"/>
<stop offset="0.348958" stop-color="#6F4CBB"/>
<stop offset="0.713542" stop-color="#F3901B"/>
<stop offset="1" stop-color="#EBFF09"/>
</linearGradient>
<linearGradient id="paint15_linear" x1="519.008" y1="452.688" x2="362.426" y2="404.136" gradientUnits="userSpaceOnUse">
<stop stop-color="#0071BC"/>
<stop offset="0.348958" stop-color="#6F4CBB"/>
<stop offset="0.713542" stop-color="#F3901B"/>
<stop offset="1" stop-color="#EBFF09"/>
</linearGradient>
<linearGradient id="paint16_linear" x1="524.975" y1="455.67" x2="368.394" y2="407.118" gradientUnits="userSpaceOnUse">
<stop stop-color="#0071BC"/>
<stop offset="0.348958" stop-color="#6F4CBB"/>
<stop offset="0.713542" stop-color="#F3901B"/>
<stop offset="1" stop-color="#EBFF09"/>
</linearGradient>
<linearGradient id="paint17_linear" x1="530.942" y1="458.653" x2="374.36" y2="410.101" gradientUnits="userSpaceOnUse">
<stop stop-color="#0071BC"/>
<stop offset="0.348958" stop-color="#6F4CBB"/>
<stop offset="0.713542" stop-color="#F3901B"/>
<stop offset="1" stop-color="#EBFF09"/>
</linearGradient>
<linearGradient id="paint18_linear" x1="536.909" y1="461.634" x2="380.327" y2="413.081" gradientUnits="userSpaceOnUse">
<stop stop-color="#0071BC"/>
<stop offset="0.348958" stop-color="#6F4CBB"/>
<stop offset="0.713542" stop-color="#F3901B"/>
<stop offset="1" stop-color="#EBFF09"/>
</linearGradient>
<linearGradient id="paint19_linear" x1="542.785" y1="465.285" x2="386.204" y2="416.732" gradientUnits="userSpaceOnUse">
<stop stop-color="#0071BC"/>
<stop offset="0.348958" stop-color="#6F4CBB"/>
<stop offset="0.713542" stop-color="#F3901B"/>
<stop offset="1" stop-color="#EBFF09"/>
</linearGradient>
</defs>
</svg>
