<svg width="449" height="510" viewBox="0 0 449 510" fill="none" xmlns="http://www.w3.org/2000/svg">
<g clip-path="url(#clip0)">
<path d="M12.4038 399.851V128.77C12.4038 128.037 12.8044 127.363 13.4481 127.013L233.696 7.19504C235.029 6.47003 236.652 7.43478 236.652 8.9519V280.034C236.652 280.766 236.252 281.44 235.608 281.79L15.3595 401.608C14.0268 402.333 12.4038 401.368 12.4038 399.851Z" stroke="url(#paint0_linear)" stroke-width="2" stroke-linejoin="round"/>
<path d="M223.828 275.9L3.58024 395.715C2.24756 396.44 0.624512 395.475 0.624512 393.958V122.876C0.624512 122.144 1.02516 121.47 1.66877 121.12L221.917 1.30197C223.25 0.576965 224.873 1.54166 224.873 3.05881V274.144C224.873 274.876 224.472 275.55 223.828 275.9Z" stroke="url(#paint1_linear)" stroke-width="2" stroke-linejoin="round"/>
<path d="M247.387 287.685L27.1388 407.499C25.8062 408.224 24.1831 407.259 24.1831 405.742V134.661C24.1831 133.928 24.5838 133.254 25.2274 132.904L245.476 13.0863C246.808 12.3613 248.431 13.326 248.431 14.8431V285.928C248.431 286.66 248.031 287.334 247.387 287.685Z" stroke="url(#paint2_linear)" stroke-width="2" stroke-linejoin="round"/>
<path d="M259.166 293.575L38.9142 413.393C37.5815 414.118 35.9585 413.153 35.9585 411.636V140.554C35.9585 139.822 36.3591 139.148 37.0028 138.798L257.255 18.9799C258.587 18.2549 260.21 19.2197 260.21 20.7368V291.818C260.21 292.551 259.81 293.225 259.166 293.575Z" stroke="url(#paint3_linear)" stroke-width="2" stroke-linejoin="round"/>
<path d="M47.7378 417.53V146.445C47.7378 145.713 48.1384 145.039 48.7821 144.689L269.034 24.871C270.366 24.146 271.99 25.1107 271.99 26.6279V297.712C271.99 298.445 271.589 299.119 270.945 299.469L50.6935 419.287C49.3609 420.012 47.7378 419.047 47.7378 417.53Z" stroke="url(#paint4_linear)" stroke-width="2" stroke-linejoin="round"/>
<path d="M59.5168 423.421V152.339C59.5168 151.606 59.9175 150.932 60.5611 150.582L280.809 30.7646C282.142 30.0396 283.765 31.0043 283.765 32.5215V303.603C283.765 304.336 283.365 305.01 282.721 305.36L62.4726 425.177C61.1399 425.902 59.5168 424.938 59.5168 423.421Z" stroke="url(#paint5_linear)" stroke-width="2" stroke-linejoin="round"/>
<path d="M71.2961 429.315V158.23C71.2961 157.497 71.6968 156.823 72.3404 156.473L292.589 36.6557C293.922 35.9307 295.545 36.8955 295.545 38.4126V309.497C295.545 310.23 295.144 310.904 294.5 311.254L74.2519 431.072C72.9192 431.797 71.2961 430.832 71.2961 429.315Z" stroke="url(#paint6_linear)" stroke-width="2" stroke-linejoin="round"/>
<path d="M306.279 317.144L86.0309 436.962C84.6982 437.687 83.0752 436.722 83.0752 435.205V164.124C83.0752 163.391 83.4758 162.717 84.1195 162.367L304.368 42.5492C305.7 41.8242 307.324 42.7889 307.324 44.3061V315.388C307.324 316.12 306.923 316.794 306.279 317.144Z" stroke="url(#paint7_linear)" stroke-width="2" stroke-linejoin="round"/>
<path d="M318.058 323.038L97.8068 442.856C96.4741 443.581 94.8511 442.616 94.8511 441.099V170.014C94.8511 169.282 95.2517 168.608 95.8953 168.258L316.147 48.4401C317.48 47.7151 319.103 48.6798 319.103 50.1969V321.281C319.103 322.014 318.702 322.688 318.058 323.038Z" stroke="url(#paint8_linear)" stroke-width="2" stroke-linejoin="round"/>
<path d="M106.63 446.991V175.91C106.63 175.177 107.031 174.503 107.674 174.153L327.926 54.3351C329.259 53.6101 330.882 54.5748 330.882 56.0919V327.173C330.882 327.906 330.481 328.58 329.838 328.93L109.586 448.748C108.253 449.473 106.63 448.508 106.63 446.991Z" stroke="url(#paint9_linear)" stroke-width="2" stroke-linejoin="round"/>
<path d="M341.617 334.824L121.365 454.641C120.032 455.366 118.409 454.402 118.409 452.884V181.8C118.409 181.067 118.81 180.393 119.453 180.043L339.706 60.2289C341.038 59.5039 342.661 60.4686 342.661 61.9857V333.067C342.661 333.8 342.261 334.474 341.617 334.824Z" stroke="url(#paint10_linear)" stroke-width="2" stroke-linejoin="round"/>
<path d="M130.188 458.776V187.695C130.188 186.962 130.589 186.288 131.233 185.938L351.481 66.1203C352.814 65.3953 354.437 66.3601 354.437 67.8772V338.958C354.437 339.691 354.036 340.365 353.392 340.715L133.144 460.533C131.812 461.258 130.188 460.293 130.188 458.776Z" stroke="url(#paint11_linear)" stroke-width="2" stroke-linejoin="round"/>
<path d="M365.172 346.609L144.924 466.426C143.591 467.151 141.968 466.187 141.968 464.67V193.585C141.968 192.852 142.368 192.178 143.012 191.828L363.26 72.0137C364.593 71.2888 366.216 72.2534 366.216 73.7706V344.852C366.216 345.585 365.816 346.259 365.172 346.609Z" stroke="url(#paint12_linear)" stroke-width="2" stroke-linejoin="round"/>
<path d="M153.743 470.565V199.48C153.743 198.747 154.144 198.073 154.787 197.723L375.039 77.9049C376.372 77.1799 377.995 78.1447 377.995 79.6618V350.747C377.995 351.48 377.594 352.154 376.951 352.504L156.699 472.322C155.366 473.047 153.743 472.082 153.743 470.565Z" stroke="url(#paint13_linear)" stroke-width="2" stroke-linejoin="round"/>
<path d="M165.522 476.454V205.373C165.522 204.64 165.923 203.966 166.567 203.616L386.819 83.798C388.152 83.073 389.775 84.0378 389.775 85.5549V356.636C389.775 357.369 389.374 358.043 388.73 358.393L168.478 478.211C167.145 478.936 165.522 477.971 165.522 476.454Z" stroke="url(#paint14_linear)" stroke-width="2" stroke-linejoin="round"/>
<path d="M400.506 364.288L180.258 484.106C178.925 484.831 177.302 483.866 177.302 482.349V211.264C177.302 210.531 177.702 209.857 178.346 209.507L398.594 89.6893C399.927 88.9643 401.55 89.929 401.55 91.4461V362.531C401.55 363.264 401.149 363.938 400.506 364.288Z" stroke="url(#paint15_linear)" stroke-width="2" stroke-linejoin="round"/>
<path d="M189.081 488.239V217.157C189.081 216.425 189.481 215.751 190.125 215.401L410.373 95.5829C411.706 94.8579 413.329 95.8226 413.329 97.3397V368.421C413.329 369.154 412.929 369.828 412.285 370.178L192.037 489.996C190.704 490.721 189.081 489.756 189.081 488.239Z" stroke="url(#paint16_linear)" stroke-width="2" stroke-linejoin="round"/>
<path d="M200.86 494.134V223.049C200.86 222.316 201.26 221.642 201.904 221.292L422.152 101.474C423.485 100.749 425.108 101.714 425.108 103.231V374.316C425.108 375.049 424.707 375.723 424.064 376.073L203.815 495.891C202.483 496.616 200.86 495.651 200.86 494.134Z" stroke="url(#paint17_linear)" stroke-width="2" stroke-linejoin="round"/>
<path d="M212.639 500.024V228.942C212.639 228.21 213.04 227.536 213.683 227.185L433.932 107.368C435.264 106.643 436.887 107.608 436.887 109.125V380.206C436.887 380.939 436.487 381.613 435.843 381.963L215.595 501.781C214.262 502.506 212.639 501.541 212.639 500.024Z" stroke="url(#paint18_linear)" stroke-width="2" stroke-linejoin="round"/>
<path d="M224.241 507.238V236.156C224.241 235.423 224.641 234.749 225.285 234.399L445.533 114.582C446.866 113.857 448.489 114.821 448.489 116.339V387.42C448.489 388.153 448.089 388.827 447.445 389.177L227.196 508.994C225.864 509.719 224.241 508.755 224.241 507.238Z" stroke="url(#paint19_linear)" stroke-width="2" stroke-linejoin="round"/>
</g>
<defs>
<linearGradient id="paint0_linear" x1="293.111" y1="284.404" x2="-16.0465" y2="188.627" gradientUnits="userSpaceOnUse">
<stop stop-color="#0071BC"/>
<stop offset="0.348958" stop-color="#6F4CBB"/>
<stop offset="0.713542" stop-color="#F3901B"/>
<stop offset="1" stop-color="#EBFF09"/>
</linearGradient>
<linearGradient id="paint1_linear" x1="281.332" y1="278.51" x2="-27.8258" y2="182.733" gradientUnits="userSpaceOnUse">
<stop stop-color="#0071BC"/>
<stop offset="0.348958" stop-color="#6F4CBB"/>
<stop offset="0.713542" stop-color="#F3901B"/>
<stop offset="1" stop-color="#EBFF09"/>
</linearGradient>
<linearGradient id="paint2_linear" x1="304.891" y1="290.294" x2="-4.26714" y2="194.518" gradientUnits="userSpaceOnUse">
<stop stop-color="#0071BC"/>
<stop offset="0.348958" stop-color="#6F4CBB"/>
<stop offset="0.713542" stop-color="#F3901B"/>
<stop offset="1" stop-color="#EBFF09"/>
</linearGradient>
<linearGradient id="paint3_linear" x1="316.671" y1="296.188" x2="7.50859" y2="200.409" gradientUnits="userSpaceOnUse">
<stop stop-color="#0071BC"/>
<stop offset="0.348958" stop-color="#6F4CBB"/>
<stop offset="0.713542" stop-color="#F3901B"/>
<stop offset="1" stop-color="#EBFF09"/>
</linearGradient>
<linearGradient id="paint4_linear" x1="328.45" y1="302.082" x2="19.2875" y2="206.303" gradientUnits="userSpaceOnUse">
<stop stop-color="#0071BC"/>
<stop offset="0.348958" stop-color="#6F4CBB"/>
<stop offset="0.713542" stop-color="#F3901B"/>
<stop offset="1" stop-color="#EBFF09"/>
</linearGradient>
<linearGradient id="paint5_linear" x1="340.224" y1="307.973" x2="31.0665" y2="212.196" gradientUnits="userSpaceOnUse">
<stop stop-color="#0071BC"/>
<stop offset="0.348958" stop-color="#6F4CBB"/>
<stop offset="0.713542" stop-color="#F3901B"/>
<stop offset="1" stop-color="#EBFF09"/>
</linearGradient>
<linearGradient id="paint6_linear" x1="352.004" y1="313.866" x2="42.8454" y2="218.09" gradientUnits="userSpaceOnUse">
<stop stop-color="#0071BC"/>
<stop offset="0.348958" stop-color="#6F4CBB"/>
<stop offset="0.713542" stop-color="#F3901B"/>
<stop offset="1" stop-color="#EBFF09"/>
</linearGradient>
<linearGradient id="paint7_linear" x1="363.783" y1="319.758" x2="54.6249" y2="223.981" gradientUnits="userSpaceOnUse">
<stop stop-color="#0071BC"/>
<stop offset="0.348958" stop-color="#6F4CBB"/>
<stop offset="0.713542" stop-color="#F3901B"/>
<stop offset="1" stop-color="#EBFF09"/>
</linearGradient>
<linearGradient id="paint8_linear" x1="375.563" y1="325.65" x2="66.4008" y2="229.872" gradientUnits="userSpaceOnUse">
<stop stop-color="#0071BC"/>
<stop offset="0.348958" stop-color="#6F4CBB"/>
<stop offset="0.713542" stop-color="#F3901B"/>
<stop offset="1" stop-color="#EBFF09"/>
</linearGradient>
<linearGradient id="paint9_linear" x1="387.342" y1="331.543" x2="78.1802" y2="235.764" gradientUnits="userSpaceOnUse">
<stop stop-color="#0071BC"/>
<stop offset="0.348958" stop-color="#6F4CBB"/>
<stop offset="0.713542" stop-color="#F3901B"/>
<stop offset="1" stop-color="#EBFF09"/>
</linearGradient>
<linearGradient id="paint10_linear" x1="399.122" y1="337.437" x2="89.9594" y2="241.657" gradientUnits="userSpaceOnUse">
<stop stop-color="#0071BC"/>
<stop offset="0.348958" stop-color="#6F4CBB"/>
<stop offset="0.713542" stop-color="#F3901B"/>
<stop offset="1" stop-color="#EBFF09"/>
</linearGradient>
<linearGradient id="paint11_linear" x1="410.896" y1="343.329" x2="101.738" y2="247.552" gradientUnits="userSpaceOnUse">
<stop stop-color="#0071BC"/>
<stop offset="0.348958" stop-color="#6F4CBB"/>
<stop offset="0.713542" stop-color="#F3901B"/>
<stop offset="1" stop-color="#EBFF09"/>
</linearGradient>
<linearGradient id="paint12_linear" x1="422.675" y1="349.222" x2="113.517" y2="253.445" gradientUnits="userSpaceOnUse">
<stop stop-color="#0071BC"/>
<stop offset="0.348958" stop-color="#6F4CBB"/>
<stop offset="0.713542" stop-color="#F3901B"/>
<stop offset="1" stop-color="#EBFF09"/>
</linearGradient>
<linearGradient id="paint13_linear" x1="434.455" y1="355.116" x2="125.293" y2="259.337" gradientUnits="userSpaceOnUse">
<stop stop-color="#0071BC"/>
<stop offset="0.348958" stop-color="#6F4CBB"/>
<stop offset="0.713542" stop-color="#F3901B"/>
<stop offset="1" stop-color="#EBFF09"/>
</linearGradient>
<linearGradient id="paint14_linear" x1="446.235" y1="361.006" x2="137.073" y2="265.227" gradientUnits="userSpaceOnUse">
<stop stop-color="#0071BC"/>
<stop offset="0.348958" stop-color="#6F4CBB"/>
<stop offset="0.713542" stop-color="#F3901B"/>
<stop offset="1" stop-color="#EBFF09"/>
</linearGradient>
<linearGradient id="paint15_linear" x1="458.009" y1="366.9" x2="148.851" y2="271.124" gradientUnits="userSpaceOnUse">
<stop stop-color="#0071BC"/>
<stop offset="0.348958" stop-color="#6F4CBB"/>
<stop offset="0.713542" stop-color="#F3901B"/>
<stop offset="1" stop-color="#EBFF09"/>
</linearGradient>
<linearGradient id="paint16_linear" x1="469.788" y1="372.791" x2="160.63" y2="277.015" gradientUnits="userSpaceOnUse">
<stop stop-color="#0071BC"/>
<stop offset="0.348958" stop-color="#6F4CBB"/>
<stop offset="0.713542" stop-color="#F3901B"/>
<stop offset="1" stop-color="#EBFF09"/>
</linearGradient>
<linearGradient id="paint17_linear" x1="481.567" y1="378.685" x2="172.409" y2="282.909" gradientUnits="userSpaceOnUse">
<stop stop-color="#0071BC"/>
<stop offset="0.348958" stop-color="#6F4CBB"/>
<stop offset="0.713542" stop-color="#F3901B"/>
<stop offset="1" stop-color="#EBFF09"/>
</linearGradient>
<linearGradient id="paint18_linear" x1="493.346" y1="384.576" x2="184.189" y2="288.799" gradientUnits="userSpaceOnUse">
<stop stop-color="#0071BC"/>
<stop offset="0.348958" stop-color="#6F4CBB"/>
<stop offset="0.713542" stop-color="#F3901B"/>
<stop offset="1" stop-color="#EBFF09"/>
</linearGradient>
<linearGradient id="paint19_linear" x1="504.948" y1="391.79" x2="195.79" y2="296.013" gradientUnits="userSpaceOnUse">
<stop stop-color="#0071BC"/>
<stop offset="0.348958" stop-color="#6F4CBB"/>
<stop offset="0.713542" stop-color="#F3901B"/>
<stop offset="1" stop-color="#EBFF09"/>
</linearGradient>
<clipPath id="clip0">
<rect width="449" height="510" fill="white"/>
</clipPath>
</defs>
</svg>
