<svg width="25" height="24" viewBox="0 0 25 24" fill="none" xmlns="http://www.w3.org/2000/svg">
<mask id="mask0" mask-type="alpha" maskUnits="userSpaceOnUse" x="0" y="0" width="25" height="24">
<path fill-rule="evenodd" clip-rule="evenodd" d="M19.5 2C21.0977 2 22.4037 3.24892 22.4949 4.82373L22.5 5V19C22.5 20.5977 21.2511 21.9037 19.6763 21.9949L19.5 22H5.5C3.90232 22 2.59634 20.7511 2.50509 19.1763L2.5 19V5C2.5 3.40232 3.74892 2.09634 5.32373 2.00509L5.5 2H19.5ZM11.5 4H5.5C4.98716 4 4.56449 4.49634 4.50673 5.13577L4.5 5.28571V11H5.5C6.05228 11 6.5 11.4477 6.5 12C6.5 12.5523 6.05228 13 5.5 13H4.5V19C4.5 19.5128 4.99634 19.9355 5.63577 19.9933L5.78571 20H11.5V19C11.5 18.4477 11.9477 18 12.5 18C13.0523 18 13.5 18.4477 13.5 19V20H19.5C20.0128 20 20.4355 19.614 20.4933 19.1166L20.5 19V13H19.5C18.9477 13 18.5 12.5523 18.5 12C18.5 11.4477 18.9477 11 19.5 11H20.5V5.28571C20.5 4.62635 20.0037 4.08292 19.3642 4.00865L19.2143 4H13.5V5C13.5 5.55228 13.0523 6 12.5 6C11.9477 6 11.5 5.55228 11.5 5V4ZM12.5 9C13.0128 9 13.4355 9.38604 13.4933 9.88338L13.5 10V11H14.5C15.0523 11 15.5 11.4477 15.5 12C15.5 12.5128 15.114 12.9355 14.6166 12.9933L14.5 13H13.5V14C13.5 14.5523 13.0523 15 12.5 15C11.9872 15 11.5645 14.614 11.5067 14.1166L11.5 14V13H10.5C9.94772 13 9.5 12.5523 9.5 12C9.5 11.4872 9.88604 11.0645 10.3834 11.0067L10.5 11H11.5V10C11.5 9.44772 11.9477 9 12.5 9Z" fill="black"/>
</mask>
<g mask="url(#mask0)">
<rect x="0.5" width="24" height="24" fill="#3C3F4F"/>
</g>
</svg>
